<?xml version="1.0" standalone="no"?>
<!DOCTYPE svg PUBLIC "-//W3C//DTD SVG 20010904//EN"
 "http://www.w3.org/TR/2001/REC-SVG-20010904/DTD/svg10.dtd">
<svg version="1.0" xmlns="http://www.w3.org/2000/svg"
 width="1796.000000pt" height="1416.000000pt" viewBox="0 172.000000 1796.000000 1544.000000"
 preserveAspectRatio="xMidYMid meet">
<metadata>
Created by potrace 1.15, written by Peter Selinger 2001-2017
</metadata>
<g transform="translate(0.000000,1716.000000) scale(0.100000,-0.100000)"
fill="#FFD700" stroke="none">
<path d="M8610 17010 c0 -13 7 -20 20 -20 13 0 20 7 20 20 0 13 -7 20 -20 20
-13 0 -20 -7 -20 -20z"/>
<path d="M10480 16895 c0 -113 2 -135 15 -135 13 0 15 22 15 135 0 113 -2 135
-15 135 -13 0 -15 -22 -15 -135z"/>
<path d="M7542 17011 c2 -4 23 -63 47 -130 59 -160 65 -159 125 4 25 69 46
127 46 130 0 3 -8 5 -17 5 -14 0 -26 -24 -52 -99 -19 -55 -38 -98 -42 -95 -4
2 -22 47 -39 99 -26 78 -35 95 -52 95 -11 0 -18 -4 -16 -9z"/>
<path d="M9301 16903 c-24 -64 -45 -123 -48 -130 -3 -8 2 -13 14 -13 13 0 23
12 32 35 12 36 13 36 64 33 48 -3 52 -5 61 -35 6 -22 15 -33 27 -33 11 0 19 2
19 5 0 3 -21 61 -46 130 -60 163 -67 164 -123 8z m77 18 c17 -55 15 -61 -18
-61 -16 0 -30 5 -30 11 0 21 23 89 30 89 4 0 12 -17 18 -39z"/>
<path d="M9500 16890 c0 -123 1 -130 20 -130 19 0 20 7 20 130 0 123 -1 130
-20 130 -19 0 -20 -7 -20 -130z"/>
<path d="M9680 16890 c0 -123 1 -130 20 -130 17 0 20 7 20 50 0 49 1 50 30 50
26 0 33 -7 55 -50 18 -35 31 -50 45 -50 25 0 25 -2 -6 54 l-26 47 21 23 c31
33 28 89 -5 115 -21 16 -41 21 -90 21 l-64 0 0 -130z m130 80 c11 -11 20 -24
20 -30 0 -23 -41 -50 -75 -50 l-35 0 0 50 0 50 35 0 c22 0 43 -8 55 -20z"/>
<path d="M8180 16980 c0 -10 -8 -24 -17 -30 -17 -10 -17 -10 0 -20 13 -9 17
-25 17 -78 0 -73 10 -92 47 -92 28 0 31 26 3 33 -17 4 -20 14 -20 67 0 53 3
63 20 67 11 3 20 9 20 13 0 4 -9 10 -20 13 -12 3 -20 14 -20 26 0 12 -6 21
-15 21 -8 0 -15 -9 -15 -20z"/>
<path d="M10570 16986 c0 -8 -8 -22 -17 -32 -16 -15 -16 -17 0 -29 13 -9 17
-28 17 -77 0 -69 10 -88 47 -88 28 0 31 26 3 33 -17 4 -20 14 -20 67 0 53 3
63 20 67 11 3 20 9 20 14 0 5 -9 9 -20 9 -15 0 -20 7 -20 25 0 16 -6 25 -15
25 -8 0 -15 -6 -15 -14z"/>
<path d="M7813 16950 c-54 -22 -67 -118 -22 -166 30 -32 90 -33 121 -2 21 21
21 23 4 26 -10 2 -23 -1 -29 -7 -17 -17 -52 -13 -70 7 -31 34 -21 42 48 42 62
0 65 1 65 24 0 38 -10 56 -41 71 -32 17 -44 18 -76 5z m75 -57 c3 -21 -1 -23
-37 -23 -44 0 -59 13 -40 36 19 24 73 14 77 -13z"/>
<path d="M8014 16950 c-50 -21 -69 -92 -39 -149 16 -33 33 -41 80 -41 25 0 39
7 55 28 19 24 20 27 5 30 -9 2 -24 -3 -34 -12 -38 -34 -81 -4 -81 57 0 28 6
40 26 53 24 16 26 16 54 -5 47 -35 67 -24 33 18 -21 24 -68 35 -99 21z"/>
<path d="M8320 16948 c-80 -42 -52 -188 36 -188 18 0 40 3 49 6 23 9 45 57 45
98 0 67 -73 113 -130 84z m68 -34 c40 -28 25 -124 -20 -124 -56 0 -82 92 -36
124 12 9 25 16 28 16 3 0 16 -7 28 -16z"/>
<path d="M8542 16951 c-7 -4 -24 -6 -38 -3 l-25 4 3 -93 c3 -80 6 -94 21 -97
15 -3 17 5 17 66 0 72 7 87 45 94 11 2 20 10 20 18 0 17 -24 24 -43 11z"/>
<path d="M8914 16950 c-50 -20 -69 -92 -39 -149 25 -49 96 -58 135 -16 19 20
20 25 7 25 -9 0 -28 -5 -42 -12 -33 -15 -75 3 -75 32 0 18 6 20 65 20 63 0 65
1 65 26 0 30 -50 84 -77 83 -10 0 -28 -4 -39 -9z m74 -64 c3 -13 -5 -16 -37
-16 -49 0 -62 17 -31 42 20 16 25 17 44 5 12 -8 22 -22 24 -31z"/>
<path d="M9116 16944 c-9 -8 -16 -11 -16 -5 0 6 -7 11 -15 11 -12 0 -15 -17
-15 -95 0 -78 3 -95 15 -95 12 0 15 14 15 68 0 73 10 92 47 92 16 0 23 6 23
20 0 24 -32 27 -54 4z"/>
<path d="M9944 16950 c-50 -20 -69 -92 -39 -149 25 -49 96 -58 135 -16 19 20
20 25 7 25 -9 0 -28 -5 -42 -12 -33 -15 -75 3 -75 32 0 18 6 20 65 20 62 0 65
1 65 24 0 52 -68 96 -116 76z m71 -61 c0 -9 -15 -15 -42 -17 -49 -4 -59 16
-21 42 19 13 25 14 43 2 11 -7 20 -20 20 -27z"/>
<path d="M10128 16949 c-15 -6 -30 -19 -33 -30 -12 -36 4 -57 56 -74 36 -12
49 -21 47 -33 -4 -19 -68 -31 -68 -13 0 6 -9 11 -20 11 -25 0 -26 -18 -2 -36
26 -21 85 -17 110 6 38 36 22 71 -43 92 -42 14 -57 41 -29 52 9 4 27 0 40 -9
29 -19 44 -19 44 -1 0 31 -58 51 -102 35z"/>
<path d="M8610 16855 c0 -88 1 -95 20 -95 19 0 20 7 20 95 0 88 -1 95 -20 95
-19 0 -20 -7 -20 -95z"/>
<path d="M8690 16940 c0 -5 20 -10 43 -10 24 0 47 -3 50 -6 4 -4 -16 -35 -43
-69 -70 -88 -68 -97 22 -93 46 2 73 7 76 16 3 9 -12 12 -53 12 l-56 0 55 72
c31 39 56 75 56 80 0 4 -34 8 -75 8 -43 0 -75 -4 -75 -10z"/>
<path d="M10270 16883 c0 -86 15 -117 57 -121 18 -2 41 2 53 8 13 7 20 7 20 0
0 -5 7 -10 15 -10 12 0 15 17 15 95 0 78 -3 95 -15 95 -11 0 -15 -13 -15 -52
0 -72 -17 -103 -55 -103 l-30 0 -3 78 c-3 69 -5 77 -22 77 -18 0 -20 -7 -20
-67z"/>
<path d="M9174 16795 c-4 -9 -2 -21 4 -27 15 -15 44 -1 40 19 -4 23 -36 29
-44 8z"/>
<path d="M8481 14254 c-440 -43 -751 -116 -1216 -283 -113 -41 -555 -249 -555
-261 0 -4 -31 -21 -70 -40 -38 -19 -70 -37 -70 -41 0 -3 -13 -12 -30 -19 -16
-7 -30 -16 -30 -20 0 -4 -13 -13 -30 -20 -16 -7 -30 -16 -30 -20 0 -4 -13 -13
-30 -20 -16 -7 -30 -16 -30 -20 0 -4 -13 -13 -30 -20 -16 -7 -30 -16 -30 -21
0 -4 -9 -10 -19 -14 -11 -3 -34 -19 -52 -36 -17 -16 -35 -29 -39 -29 -4 0 -21
-12 -38 -27 -16 -16 -40 -35 -52 -43 -12 -8 -35 -26 -50 -40 -15 -14 -38 -32
-50 -40 -12 -8 -40 -31 -61 -50 -21 -19 -52 -46 -69 -60 -54 -43 -350 -339
-350 -350 0 -5 -4 -10 -10 -10 -5 0 -10 -4 -10 -10 0 -5 -27 -37 -60 -71 -33
-33 -60 -65 -60 -71 0 -5 -13 -23 -30 -38 -16 -15 -30 -33 -30 -39 0 -6 -4
-11 -10 -11 -5 0 -10 -5 -10 -10 0 -6 -13 -24 -30 -42 -16 -17 -30 -36 -30
-42 0 -6 -9 -18 -20 -26 -11 -8 -20 -21 -20 -30 0 -9 -9 -22 -20 -30 -11 -8
-20 -20 -20 -27 0 -7 -13 -27 -30 -45 -16 -17 -30 -36 -30 -42 0 -6 -9 -18
-20 -26 -11 -8 -20 -22 -20 -32 0 -10 -4 -18 -10 -18 -5 0 -10 -8 -10 -18 0
-10 -9 -24 -20 -32 -11 -8 -20 -22 -20 -32 0 -10 -4 -18 -10 -18 -5 0 -10 -8
-10 -18 0 -10 -9 -24 -20 -32 -11 -8 -20 -22 -20 -32 0 -10 -4 -18 -10 -18 -5
0 -10 -9 -10 -20 0 -11 -4 -20 -10 -20 -5 0 -10 -9 -10 -20 0 -11 -4 -20 -10
-20 -5 0 -10 -9 -10 -20 0 -11 -4 -20 -10 -20 -5 0 -10 -9 -10 -20 0 -11 -4
-20 -10 -20 -5 0 -10 -9 -10 -20 0 -11 -4 -20 -10 -20 -5 0 -10 -9 -10 -20 0
-11 -4 -20 -10 -20 -5 0 -10 -9 -10 -20 0 -11 -4 -20 -10 -20 -5 0 -10 -9 -10
-20 0 -11 -4 -20 -10 -20 -5 0 -10 -9 -10 -20 0 -11 -4 -20 -10 -20 -5 0 -10
-9 -10 -20 0 -11 -4 -20 -10 -20 -5 0 -10 -9 -10 -20 0 -11 -4 -20 -10 -20 -5
0 -10 -13 -10 -30 0 -16 -4 -30 -10 -30 -5 0 -10 -9 -10 -20 0 -11 -4 -20 -10
-20 -5 0 -10 -13 -10 -30 0 -16 -4 -30 -10 -30 -5 0 -10 -9 -10 -20 0 -11 -4
-20 -10 -20 -5 0 -10 -13 -10 -30 0 -16 -4 -30 -10 -30 -5 0 -10 -13 -10 -30
0 -16 -4 -30 -10 -30 -5 0 -10 -13 -10 -30 0 -16 -4 -30 -10 -30 -5 0 -10 -13
-10 -30 0 -16 -4 -30 -10 -30 -5 0 -10 -13 -10 -30 0 -16 -4 -30 -10 -30 -5 0
-10 -13 -10 -30 0 -16 -4 -30 -10 -30 -5 0 -10 -18 -10 -40 0 -22 -4 -40 -10
-40 -5 0 -10 -18 -10 -40 0 -22 -4 -40 -10 -40 -5 0 -10 -18 -10 -40 0 -22 -4
-40 -10 -40 -5 0 -10 -22 -10 -50 0 -27 -4 -50 -10 -50 -5 0 -10 -22 -10 -50
0 -27 -4 -50 -10 -50 -6 0 -10 -27 -10 -60 0 -33 -4 -60 -10 -60 -6 0 -10 -27
-10 -60 0 -33 -4 -60 -10 -60 -6 0 -10 -40 -10 -100 0 -60 -4 -100 -10 -100
-14 0 -14 -717 0 -725 6 -3 10 -48 10 -100 0 -52 4 -97 10 -100 6 -3 10 -35
10 -70 0 -35 4 -67 10 -70 6 -3 10 -30 10 -60 0 -30 5 -57 10 -60 6 -3 10 -26
10 -50 0 -24 5 -47 10 -50 6 -3 10 -26 10 -51 0 -24 5 -44 10 -44 6 0 10 -18
10 -40 0 -22 5 -40 10 -40 6 0 10 -18 10 -40 0 -22 5 -40 10 -40 6 0 10 -13
10 -30 0 -16 5 -30 10 -30 6 0 10 -18 10 -40 0 -22 5 -40 10 -40 6 0 10 -13
10 -30 0 -16 5 -30 10 -30 6 0 10 -13 10 -30 0 -16 5 -30 10 -30 6 0 10 -13
10 -30 0 -16 5 -30 10 -30 6 0 10 -13 10 -30 0 -16 5 -30 10 -30 6 0 10 -9 10
-20 0 -11 5 -20 10 -20 6 0 10 -13 10 -30 0 -16 5 -30 10 -30 6 0 10 -13 10
-30 0 -16 5 -30 10 -30 6 0 10 -9 10 -20 0 -11 5 -20 10 -20 6 0 10 -13 10
-30 0 -16 5 -30 10 -30 6 0 10 -9 10 -20 0 -11 5 -20 10 -20 6 0 10 -9 10 -20
0 -11 5 -20 10 -20 6 0 10 -9 10 -20 0 -11 5 -20 10 -20 6 0 10 -9 10 -20 0
-11 5 -20 10 -20 6 0 10 -9 10 -20 0 -11 5 -20 10 -20 6 0 10 -9 10 -20 0 -11
5 -20 10 -20 6 0 10 -9 10 -20 0 -11 5 -20 10 -20 6 0 10 -8 10 -18 0 -10 9
-24 20 -32 11 -8 20 -22 20 -32 0 -10 5 -18 10 -18 6 0 10 -9 10 -20 0 -11 5
-20 10 -20 6 0 10 -8 10 -18 0 -10 9 -24 20 -32 11 -8 20 -22 20 -32 0 -10 5
-18 10 -18 6 0 10 -8 10 -18 0 -10 9 -24 20 -32 11 -8 20 -21 20 -30 0 -9 9
-22 20 -30 11 -8 20 -21 20 -30 0 -9 9 -22 20 -30 11 -8 20 -21 20 -30 0 -9 9
-22 20 -30 11 -8 20 -21 20 -30 0 -9 9 -22 20 -30 11 -8 20 -21 20 -28 0 -8
14 -27 30 -42 17 -15 30 -32 30 -38 0 -5 14 -23 30 -40 17 -18 30 -36 30 -41
0 -5 27 -37 60 -70 33 -34 60 -65 60 -71 0 -5 45 -54 100 -110 55 -55 100
-104 100 -108 0 -10 93 -102 103 -102 4 0 48 -41 98 -90 49 -50 94 -90 100
-90 5 0 32 -23 60 -50 28 -28 56 -50 61 -50 5 0 23 -13 38 -30 15 -16 33 -30
40 -30 7 0 25 -13 40 -30 15 -16 34 -30 42 -30 7 0 20 -9 28 -20 8 -11 21 -20
30 -20 9 0 22 -9 30 -20 8 -11 21 -20 30 -20 9 0 22 -9 30 -20 8 -11 21 -20
30 -20 9 0 22 -9 30 -20 8 -11 21 -20 30 -20 9 0 22 -9 30 -20 8 -11 22 -20
32 -20 10 0 18 -4 18 -10 0 -5 9 -10 20 -10 11 0 20 -4 20 -10 0 -5 8 -10 18
-10 10 0 24 -9 32 -20 8 -11 22 -20 32 -20 10 0 18 -4 18 -10 0 -5 9 -10 20
-10 11 0 20 -4 20 -10 0 -5 9 -10 20 -10 11 0 20 -4 20 -10 0 -5 9 -10 20 -10
11 0 20 -4 20 -10 0 -5 9 -10 20 -10 11 0 20 -4 20 -10 0 -5 9 -10 20 -10 11
0 20 -4 20 -10 0 -5 9 -10 20 -10 11 0 20 -4 20 -10 0 -5 9 -10 20 -10 11 0
20 -4 20 -10 0 -5 9 -10 20 -10 11 0 20 -4 20 -10 0 -5 9 -10 20 -10 11 0 20
-4 20 -10 0 -5 9 -10 20 -10 11 0 20 -4 20 -10 0 -5 14 -10 30 -10 17 0 30 -4
30 -10 0 -5 9 -10 20 -10 11 0 20 -4 20 -10 0 -5 14 -10 30 -10 17 0 30 -4 30
-10 0 -5 9 -10 20 -10 11 0 20 -4 20 -10 0 -5 14 -10 30 -10 17 0 30 -4 30
-10 0 -5 14 -10 30 -10 17 0 30 -4 30 -10 0 -5 14 -10 30 -10 17 0 30 -4 30
-10 0 -5 13 -10 29 -10 17 0 33 -4 36 -10 3 -5 22 -10 41 -10 19 0 34 -4 34
-10 0 -5 14 -10 30 -10 17 0 30 -4 30 -10 0 -5 18 -10 40 -10 22 0 40 -4 40
-10 0 -5 18 -10 40 -10 22 0 40 -4 40 -10 0 -5 18 -10 39 -10 22 0 43 -4 46
-10 3 -5 26 -10 50 -10 24 0 47 -4 50 -10 3 -5 25 -10 49 -10 23 0 46 -4 51
-9 6 -5 39 -12 75 -15 36 -3 99 -10 140 -15 146 -21 398 -34 630 -35 214 -1
294 4 550 35 47 5 109 12 138 16 29 3 55 9 58 14 3 5 29 9 59 9 30 0 57 5 60
10 3 6 26 10 50 10 24 0 47 5 50 10 3 6 21 10 40 10 19 0 37 4 40 10 3 5 21
10 40 10 19 0 37 4 40 10 3 5 21 10 40 10 19 0 37 5 40 10 3 6 17 10 30 10 13
0 27 5 30 10 3 6 17 10 30 10 13 0 27 5 30 10 3 6 17 10 30 10 13 0 27 5 30
10 3 6 17 10 30 10 13 0 27 4 30 10 3 6 17 10 30 10 13 0 27 5 30 10 3 6 17
10 30 10 13 0 27 4 30 10 3 5 15 10 26 10 10 0 19 5 19 10 0 6 9 10 20 10 11
0 35 9 55 20 20 11 42 20 50 20 8 0 15 5 15 10 0 6 8 10 18 10 22 0 382 180
382 191 0 5 9 9 20 9 11 0 20 5 20 10 0 6 9 10 20 10 11 0 20 5 20 10 0 6 6
10 13 10 7 0 23 9 35 20 12 11 27 20 34 20 8 0 20 9 28 20 8 11 22 20 32 20
10 0 18 5 18 10 0 6 6 10 13 10 7 0 23 9 35 20 12 11 26 20 33 20 6 0 24 14
39 30 15 17 34 30 42 30 7 0 20 9 28 20 8 11 21 20 28 20 8 0 27 14 42 30 15
17 33 30 40 30 6 0 29 18 50 40 21 22 44 40 50 40 6 0 29 18 50 40 21 22 43
40 48 40 5 0 46 36 91 80 45 44 85 80 89 80 10 0 202 193 202 203 0 4 41 48
90 97 50 49 90 94 90 100 0 7 18 29 40 50 22 21 40 44 40 50 0 7 14 25 30 40
17 15 30 33 30 40 0 6 18 29 40 50 22 21 40 45 40 52 0 7 9 20 20 28 11 8 20
21 20 30 0 9 9 22 20 30 11 8 20 21 20 30 0 9 9 22 20 30 11 8 20 21 20 30 0
9 9 22 20 30 11 8 20 22 20 32 0 10 5 18 10 18 6 0 10 8 10 18 0 10 9 24 20
32 11 8 20 22 20 32 0 10 5 18 10 18 6 0 10 9 10 20 0 11 5 20 10 20 6 0 10 8
10 18 0 10 9 24 20 32 11 8 20 22 20 32 0 10 5 18 10 18 6 0 10 9 10 20 0 11
5 20 10 20 6 0 10 9 10 20 0 11 5 20 10 20 6 0 10 9 10 20 0 11 5 20 10 20 6
0 10 9 10 20 0 11 5 20 10 20 6 0 10 9 10 20 0 11 5 20 10 20 6 0 10 9 10 20
0 11 5 20 10 20 6 0 10 9 10 20 0 11 5 20 10 20 6 0 10 9 10 20 0 11 5 20 10
20 6 0 10 9 10 20 0 11 5 20 10 20 6 0 10 14 10 30 0 17 5 30 10 30 6 0 10 9
10 20 0 11 5 20 10 20 6 0 10 14 10 30 0 17 5 30 10 30 6 0 10 9 10 20 0 11 5
20 10 20 6 0 10 14 10 30 0 17 5 30 10 30 6 0 10 14 10 30 0 17 5 30 10 30 6
0 10 14 10 30 0 17 5 30 10 30 6 0 10 14 10 30 0 17 5 30 10 30 6 0 10 18 10
40 0 22 5 40 10 40 6 0 10 14 10 30 0 17 5 30 10 30 6 0 10 15 10 34 0 19 5
38 10 41 6 3 10 21 10 40 0 19 5 37 10 40 6 3 10 21 10 40 0 19 4 37 10 40 6
3 10 30 10 60 0 30 5 57 10 60 6 3 10 30 10 60 0 30 5 57 10 60 6 3 10 35 10
70 0 35 5 67 10 70 6 3 10 39 10 80 0 41 5 77 10 80 6 4 10 140 10 376 0 239
-4 369 -10 369 -6 0 -10 40 -10 100 0 60 -4 100 -10 100 -6 0 -10 30 -10 70 0
40 -4 70 -10 70 -6 0 -10 27 -10 60 0 33 -4 60 -10 60 -5 0 -10 23 -10 50 0
28 -4 50 -10 50 -5 0 -10 23 -10 50 0 28 -4 50 -10 50 -5 0 -10 18 -10 40 0
22 -4 40 -10 40 -5 0 -10 15 -10 34 0 19 -4 38 -10 41 -5 3 -10 21 -10 40 0
19 -4 37 -10 40 -5 3 -10 17 -10 30 0 13 -4 27 -10 30 -5 3 -10 21 -10 40 0
19 -4 37 -10 40 -5 3 -10 17 -10 30 0 13 -4 27 -10 30 -5 3 -10 15 -10 25 0
11 -9 35 -20 55 -11 20 -20 44 -20 55 0 10 -4 22 -10 25 -5 3 -10 17 -10 30 0
13 -4 27 -10 30 -5 3 -10 15 -10 26 0 10 -4 19 -10 19 -5 0 -10 9 -10 20 0 11
-9 35 -20 55 -11 20 -20 42 -20 50 0 8 -4 15 -10 15 -5 0 -10 8 -10 18 0 22
-120 262 -131 262 -5 0 -9 9 -9 20 0 11 -3 20 -7 20 -5 0 -19 25 -33 55 -14
30 -28 55 -32 55 -5 0 -8 6 -8 14 0 8 -3 16 -7 18 -5 2 -19 24 -32 51 -13 26
-28 47 -33 47 -4 0 -8 6 -8 13 0 7 -8 22 -17 33 -10 10 -24 31 -32 47 -8 15
-18 27 -23 27 -4 0 -8 6 -8 13 0 7 -8 22 -17 33 -10 10 -24 31 -32 47 -8 15
-18 27 -23 27 -4 0 -8 6 -8 14 0 7 -13 27 -30 44 -16 18 -30 34 -30 37 0 6
-27 39 -57 71 -13 13 -23 28 -23 34 0 5 -4 10 -10 10 -5 0 -10 5 -10 11 0 6
-13 24 -30 39 -16 15 -30 33 -30 38 0 6 -40 52 -90 101 -49 50 -90 93 -90 96
0 12 -118 134 -179 185 -23 19 -76 68 -118 108 -41 39 -79 72 -84 72 -5 0 -28
18 -50 40 -23 22 -46 40 -51 40 -5 0 -24 16 -44 35 -19 19 -39 35 -43 35 -5 0
-23 13 -40 29 -18 17 -41 33 -52 36 -10 4 -19 10 -19 14 0 5 -13 14 -30 21
-16 7 -30 16 -30 20 0 4 -13 13 -30 20 -16 7 -30 16 -30 20 0 4 -13 13 -30 20
-16 7 -30 16 -30 20 0 4 -13 13 -30 20 -16 7 -30 15 -30 19 0 4 -40 27 -90 51
-49 24 -90 48 -90 52 0 4 -9 8 -19 8 -11 0 -21 4 -23 9 -4 12 -244 131 -263
131 -8 0 -15 5 -15 10 0 6 -7 10 -15 10 -9 0 -42 14 -75 30 -33 17 -66 30 -74
30 -8 0 -16 4 -18 8 -1 4 -52 24 -113 44 -60 20 -135 47 -165 58 -178 70 -735
185 -1007 209 -165 15 -697 12 -862 -5z m834 -330 c22 -3 78 -10 125 -15 281
-33 322 -39 345 -49 11 -5 38 -11 60 -15 22 -4 60 -11 85 -16 25 -5 64 -12 88
-15 23 -4 45 -11 48 -15 3 -5 16 -9 29 -9 13 0 26 -4 29 -8 3 -5 35 -14 71
-22 36 -8 68 -17 71 -22 3 -4 16 -8 29 -8 13 0 27 -4 30 -10 3 -5 15 -10 25
-10 11 0 35 -9 55 -20 20 -11 44 -20 55 -20 10 0 21 -4 24 -9 3 -4 26 -14 51
-21 25 -7 48 -17 51 -21 3 -5 13 -9 22 -9 19 0 370 -175 452 -225 30 -19 75
-46 100 -60 110 -63 311 -204 435 -308 155 -127 185 -154 300 -266 127 -124
240 -242 292 -307 17 -21 39 -49 50 -60 10 -12 29 -36 43 -54 14 -18 31 -39
38 -46 6 -7 12 -15 12 -19 0 -4 6 -12 13 -20 27 -29 47 -56 47 -64 0 -5 4 -11
8 -13 10 -3 172 -244 172 -254 0 -3 8 -18 19 -32 42 -60 186 -330 211 -397 4
-11 22 -51 40 -90 18 -38 37 -81 42 -95 6 -14 14 -33 19 -42 5 -10 9 -24 9
-33 0 -8 9 -30 20 -50 11 -20 20 -44 20 -55 0 -10 5 -22 10 -25 6 -3 10 -17
10 -30 0 -13 5 -27 10 -30 6 -3 10 -17 10 -30 0 -13 5 -27 10 -30 6 -3 10 -17
10 -30 0 -13 5 -27 10 -30 6 -3 10 -21 10 -40 0 -19 5 -37 10 -40 6 -3 10 -17
10 -30 0 -13 5 -27 10 -30 6 -3 10 -24 10 -45 0 -21 5 -42 10 -45 6 -3 10 -24
10 -46 0 -21 5 -39 10 -39 6 0 10 -22 10 -50 0 -27 5 -50 10 -50 6 0 10 -24
10 -54 0 -30 5 -58 10 -61 6 -3 10 -43 10 -89 0 -45 4 -86 9 -91 13 -14 23
-185 24 -430 3 -392 -45 -786 -138 -1130 -13 -49 -31 -117 -39 -150 -9 -33
-21 -68 -26 -77 -6 -10 -10 -26 -10 -36 0 -10 -4 -22 -9 -27 -5 -6 -19 -41
-31 -79 -12 -37 -29 -80 -36 -95 -8 -14 -14 -30 -14 -34 0 -4 -9 -29 -21 -55
-11 -26 -24 -56 -29 -67 -21 -50 -113 -233 -130 -260 -11 -16 -33 -58 -50 -92
-17 -34 -35 -65 -40 -68 -5 -3 -17 -23 -27 -43 -9 -20 -25 -46 -35 -56 -10
-11 -18 -25 -18 -31 0 -7 -9 -20 -20 -30 -11 -10 -20 -24 -20 -32 0 -7 -4 -13
-8 -13 -5 0 -15 -12 -23 -27 -8 -16 -26 -41 -41 -58 -16 -16 -28 -35 -28 -41
0 -5 -13 -23 -30 -39 -16 -16 -30 -33 -30 -37 0 -5 -13 -23 -30 -41 -16 -18
-30 -35 -30 -40 0 -4 -22 -31 -50 -60 -27 -28 -50 -56 -50 -60 0 -4 -35 -44
-77 -88 -43 -44 -80 -85 -82 -91 -5 -14 -165 -174 -179 -179 -6 -2 -47 -39
-91 -81 -45 -43 -85 -78 -89 -78 -4 0 -31 -22 -60 -50 -29 -27 -56 -50 -61
-50 -4 0 -22 -13 -39 -30 -18 -16 -36 -30 -40 -30 -5 0 -22 -12 -38 -27 -16
-16 -42 -34 -57 -42 -15 -8 -27 -18 -27 -23 0 -4 -6 -8 -13 -8 -7 0 -22 -8
-33 -18 -10 -9 -31 -23 -46 -31 -16 -8 -28 -18 -28 -23 0 -4 -9 -8 -20 -8 -11
0 -20 -4 -20 -10 0 -5 -6 -10 -13 -10 -7 0 -23 -9 -35 -20 -12 -11 -28 -20
-37 -20 -8 0 -15 -4 -15 -10 0 -5 -9 -10 -20 -10 -11 0 -20 -4 -20 -10 0 -5
-6 -10 -13 -10 -7 0 -23 -9 -35 -20 -12 -11 -28 -20 -37 -20 -8 0 -15 -4 -15
-10 0 -5 -9 -10 -20 -10 -11 0 -20 -3 -20 -7 0 -9 -49 -33 -67 -33 -7 0 -13
-4 -13 -10 0 -5 -9 -10 -20 -10 -11 0 -20 -4 -20 -10 0 -5 -9 -10 -20 -10 -11
0 -20 -4 -20 -10 0 -5 -9 -10 -20 -10 -11 0 -20 -4 -20 -10 0 -5 -9 -10 -20
-10 -11 0 -20 -4 -20 -10 0 -5 -9 -10 -20 -10 -11 0 -20 -4 -20 -10 0 -5 -11
-10 -24 -10 -14 0 -28 -4 -31 -10 -3 -5 -15 -10 -26 -10 -10 0 -19 -4 -19 -10
0 -5 -13 -10 -30 -10 -16 0 -30 -4 -30 -10 0 -5 -9 -10 -20 -10 -11 0 -20 -4
-20 -10 0 -5 -13 -10 -30 -10 -16 0 -30 -4 -30 -10 0 -5 -13 -10 -30 -10 -16
0 -30 -4 -30 -10 0 -5 -9 -10 -20 -10 -11 0 -20 -4 -20 -10 0 -5 -18 -10 -40
-10 -22 0 -40 -4 -40 -10 0 -5 -13 -10 -30 -10 -16 0 -30 -4 -30 -10 0 -5 -18
-10 -40 -10 -22 0 -40 -4 -40 -10 0 -5 -13 -10 -30 -10 -16 0 -30 -4 -30 -10
0 -5 -20 -10 -44 -10 -25 0 -48 -4 -51 -10 -3 -5 -26 -10 -50 -10 -24 0 -47
-4 -50 -10 -3 -5 -26 -10 -50 -10 -24 0 -47 -4 -50 -10 -3 -6 -35 -10 -70 -10
-35 0 -67 -4 -70 -10 -3 -6 -39 -10 -80 -10 -41 0 -76 -4 -79 -8 -15 -25 -743
-19 -926 7 -36 5 -101 14 -145 20 -44 6 -107 15 -140 22 -33 6 -73 13 -90 16
-16 2 -39 8 -50 13 -20 8 -46 14 -133 26 -23 4 -45 11 -48 15 -3 5 -18 9 -35
9 -16 0 -37 4 -47 9 -9 5 -53 19 -97 31 -44 13 -93 28 -110 35 -16 7 -55 20
-85 30 -30 10 -59 21 -65 26 -5 5 -16 9 -25 9 -9 0 -39 11 -66 25 -27 14 -53
25 -57 25 -10 0 -44 15 -182 80 -55 26 -117 55 -137 64 -20 9 -40 21 -43 26
-3 5 -34 23 -68 40 -34 17 -75 40 -92 50 -16 11 -39 24 -50 29 -12 5 -27 16
-34 25 -7 9 -19 16 -26 16 -6 0 -20 9 -30 20 -10 11 -23 20 -30 20 -7 0 -20 9
-30 20 -10 11 -23 20 -30 20 -7 0 -20 9 -30 20 -10 11 -22 20 -27 20 -5 0 -23
13 -41 30 -18 16 -36 30 -40 30 -10 0 -80 54 -132 102 -22 21 -44 38 -48 38
-4 0 -44 35 -88 77 -44 43 -85 80 -91 82 -14 5 -174 165 -179 179 -2 6 -39 47
-81 91 -43 45 -78 85 -78 89 0 4 -18 26 -40 50 -22 23 -40 45 -40 50 0 4 -17
25 -37 47 -21 22 -44 53 -52 68 -8 15 -18 27 -23 27 -4 0 -8 6 -8 14 0 7 -12
26 -27 42 -16 16 -34 42 -42 57 -8 15 -18 27 -23 27 -4 0 -8 6 -8 13 0 7 -8
22 -17 33 -10 10 -24 31 -32 47 -8 15 -18 27 -23 27 -4 0 -8 8 -8 18 0 10 -9
24 -20 32 -11 8 -20 22 -20 32 0 10 -4 18 -10 18 -5 0 -10 9 -10 20 0 11 -4
20 -10 20 -5 0 -10 6 -10 13 0 7 -9 23 -20 35 -11 12 -20 28 -20 37 0 8 -4 15
-10 15 -5 0 -10 9 -10 20 0 11 -4 20 -10 20 -5 0 -10 9 -10 20 0 11 -4 20 -10
20 -5 0 -10 9 -10 20 0 11 -4 20 -10 20 -5 0 -10 9 -10 20 0 11 -4 20 -10 20
-5 0 -10 9 -10 20 0 11 -4 20 -10 20 -5 0 -10 9 -10 20 0 11 -4 20 -10 20 -5
0 -10 14 -10 30 0 17 -4 30 -10 30 -5 0 -10 9 -10 20 0 11 -4 20 -10 20 -5 0
-10 9 -10 20 0 11 -4 20 -10 20 -5 0 -10 14 -10 30 0 17 -4 30 -10 30 -5 0
-10 14 -10 30 0 17 -4 30 -10 30 -5 0 -10 9 -10 20 0 11 -4 20 -10 20 -5 0
-10 14 -10 30 0 17 -4 30 -10 30 -5 0 -10 14 -10 30 0 17 -4 30 -10 30 -5 0
-10 14 -10 30 0 17 -4 30 -10 30 -5 0 -10 18 -10 40 0 22 -4 40 -9 40 -5 0
-12 16 -15 35 -3 19 -9 51 -12 70 -3 19 -10 35 -14 35 -4 0 -10 19 -13 43 -3
23 -11 66 -16 95 -6 28 -16 76 -22 105 -44 221 -74 556 -74 827 1 249 30 561
69 725 2 11 10 47 16 80 17 85 70 306 79 330 5 11 27 81 51 155 23 74 46 139
51 144 5 6 9 17 9 26 0 9 11 39 25 66 14 27 25 53 25 58 0 8 31 77 90 201 16
33 38 80 50 105 11 25 29 59 40 75 10 17 33 58 50 92 17 34 35 65 40 68 6 4
19 25 30 49 10 23 26 49 35 56 8 7 15 17 15 22 0 5 24 43 53 85 28 41 57 83
62 92 6 9 30 42 55 74 25 32 58 75 73 95 16 20 44 54 63 74 19 20 34 40 34 44
0 5 64 74 168 180 17 18 32 38 32 44 0 5 4 10 8 10 5 0 36 26 69 58 110 104
200 187 229 209 16 13 45 36 64 53 46 39 49 42 89 70 19 14 44 33 55 42 28 22
111 81 164 115 24 15 72 47 107 69 76 50 298 173 375 207 30 14 87 40 125 58
39 17 104 44 145 59 41 15 113 41 160 58 285 104 604 172 985 213 195 21 727
29 850 13z"/>
<path d="M8723 12965 c-7 -8 -13 -26 -13 -40 0 -14 -4 -25 -10 -25 -5 0 -10
-13 -10 -30 0 -16 -4 -30 -10 -30 -5 0 -10 -18 -10 -40 0 -22 -4 -40 -10 -40
-5 0 -10 -13 -10 -30 0 -16 -4 -30 -10 -30 -5 0 -10 -18 -10 -40 0 -22 -4 -40
-10 -40 -5 0 -10 -13 -10 -30 0 -16 -4 -30 -10 -30 -5 0 -10 -13 -10 -30 0
-16 -4 -30 -10 -30 -5 0 -10 -18 -10 -40 0 -22 -4 -40 -10 -40 -5 0 -10 -13
-10 -30 0 -16 -4 -30 -10 -30 -5 0 -10 -13 -10 -30 0 -16 -4 -30 -10 -30 -5 0
-10 -13 -10 -30 0 -16 -4 -30 -10 -30 -5 0 -10 -13 -10 -30 0 -16 -4 -30 -10
-30 -5 0 -10 -18 -10 -40 0 -22 -4 -40 -10 -40 -5 0 -10 -13 -10 -30 0 -16 -4
-30 -10 -30 -5 0 -10 -13 -10 -30 0 -16 -4 -30 -10 -30 -5 0 -10 -13 -10 -30
0 -16 -4 -30 -10 -30 -5 0 -10 -13 -10 -30 0 -16 -4 -30 -10 -30 -5 0 -10 -18
-10 -40 0 -22 -4 -40 -10 -40 -5 0 -10 -13 -10 -30 0 -16 -4 -30 -10 -30 -5 0
-10 -13 -10 -30 0 -16 -4 -30 -10 -30 -5 0 -10 -18 -10 -40 0 -22 -4 -40 -10
-40 -5 0 -10 -13 -10 -30 0 -16 -4 -30 -10 -30 -5 0 -10 -13 -10 -30 0 -16 -4
-30 -10 -30 -5 0 -10 -13 -10 -30 0 -16 -4 -30 -10 -30 -5 0 -10 -18 -10 -40
0 -22 -4 -40 -10 -40 -5 0 -10 -13 -10 -30 0 -16 -4 -30 -10 -30 -5 0 -10 -13
-10 -30 0 -16 -4 -30 -10 -30 -5 0 -10 -13 -10 -30 0 -16 -4 -30 -10 -30 -5 0
-10 -13 -10 -30 0 -16 -4 -30 -10 -30 -5 0 -10 -18 -10 -40 0 -22 -4 -40 -10
-40 -5 0 -10 -13 -10 -30 0 -16 -4 -30 -10 -30 -5 0 -10 -13 -10 -30 0 -16 -4
-30 -10 -30 -5 0 -10 -18 -10 -40 0 -22 -4 -40 -10 -40 -5 0 -10 -13 -10 -30
0 -16 -4 -30 -10 -30 -5 0 -10 -13 -10 -30 0 -16 -4 -30 -10 -30 -5 0 -10 -13
-10 -30 0 -16 -4 -30 -10 -30 -5 0 -10 -13 -10 -30 0 -16 -4 -30 -10 -30 -5 0
-10 -18 -10 -40 0 -22 -4 -40 -10 -40 -5 0 -10 -13 -10 -30 0 -16 -4 -30 -10
-30 -5 0 -10 -13 -10 -30 0 -16 -4 -30 -10 -30 -5 0 -10 -13 -10 -30 0 -16 -4
-30 -10 -30 -5 0 -10 -13 -10 -30 0 -16 -4 -30 -10 -30 -5 0 -10 -13 -10 -30
0 -16 -4 -30 -10 -30 -5 0 -10 -18 -10 -40 0 -22 -4 -40 -10 -40 -5 0 -10 -13
-10 -30 0 -16 -4 -30 -10 -30 -5 0 -10 -13 -10 -30 0 -16 -4 -30 -10 -30 -5 0
-10 -13 -10 -30 0 -16 -4 -30 -10 -30 -5 0 -10 -18 -10 -40 0 -22 -4 -40 -10
-40 -5 0 -10 -13 -10 -30 0 -16 -4 -30 -10 -30 -5 0 -10 -13 -10 -30 0 -16 -4
-30 -10 -30 -5 0 -10 -18 -10 -40 0 -22 -4 -40 -10 -40 -5 0 -10 -13 -10 -30
0 -16 -4 -30 -10 -30 -5 0 -10 -13 -10 -30 0 -16 -4 -30 -10 -30 -5 0 -10 -18
-10 -40 0 -22 -4 -40 -10 -40 -5 0 -10 -13 -10 -30 0 -16 -4 -30 -10 -30 -5 0
-10 -18 -10 -40 0 -22 -4 -40 -10 -40 -5 0 -10 -18 -10 -40 0 -22 -4 -40 -10
-40 -5 0 -10 -13 -10 -30 0 -16 -4 -30 -10 -30 -5 0 -10 -18 -10 -40 0 -22 -4
-40 -10 -40 -5 0 -10 -7 -10 -15 0 -18 -64 -85 -81 -85 -6 0 -24 -13 -39 -30
-15 -16 -34 -30 -42 -30 -7 0 -20 -9 -28 -20 -8 -11 -21 -20 -28 -20 -8 0 -27
-13 -42 -30 -15 -16 -33 -30 -40 -30 -7 0 -25 -13 -40 -30 -15 -16 -34 -30
-42 -30 -7 0 -20 -9 -28 -20 -8 -11 -21 -20 -28 -20 -8 0 -27 -13 -42 -30 -15
-16 -34 -30 -42 -30 -7 0 -20 -9 -28 -20 -8 -11 -21 -20 -28 -20 -8 0 -27 -13
-42 -30 -15 -16 -34 -30 -42 -30 -7 0 -20 -9 -28 -20 -8 -11 -21 -20 -28 -20
-8 0 -27 -13 -42 -30 -15 -16 -35 -30 -44 -30 -9 0 -16 -4 -16 -8 0 -5 -12
-15 -27 -23 -15 -8 -41 -26 -57 -41 -16 -16 -35 -28 -42 -28 -8 0 -14 -4 -14
-8 0 -5 -12 -15 -27 -23 -16 -8 -37 -22 -47 -31 -11 -10 -26 -18 -33 -18 -7 0
-13 -4 -13 -10 0 -14 -33 -13 -48 2 -17 17 -17 235 1 251 6 7 24 18 40 26 15
8 27 18 27 23 0 4 6 8 14 8 7 0 26 12 42 28 16 15 42 33 57 41 15 8 27 18 27
23 0 4 6 8 14 8 7 0 26 12 42 28 16 15 42 33 57 41 15 8 27 18 27 23 0 4 6 8
13 8 7 0 23 9 35 20 12 11 25 20 30 20 5 0 22 12 38 28 16 15 42 33 57 41 15
8 27 18 27 23 0 4 6 8 14 8 7 0 26 12 42 28 16 15 42 33 57 41 15 8 27 18 27
23 0 4 6 8 14 8 7 0 26 12 42 28 16 15 42 33 57 41 15 8 27 18 27 23 0 4 6 8
14 8 22 0 86 70 86 94 0 12 4 26 8 31 5 6 15 37 22 70 7 33 16 65 20 70 4 6
13 37 20 70 7 33 16 65 20 70 4 6 13 37 20 70 7 33 16 65 20 70 3 6 12 35 19
65 7 30 16 64 21 75 9 22 30 98 30 109 0 14 -37 4 -50 -14 -8 -11 -20 -20 -28
-20 -7 0 -44 -31 -82 -70 -38 -38 -74 -70 -80 -70 -6 0 -46 -36 -90 -80 -44
-44 -84 -80 -90 -80 -6 0 -55 -45 -110 -100 -55 -55 -104 -100 -110 -100 -6 0
-60 -49 -120 -110 -60 -60 -114 -110 -120 -110 -6 0 -64 -54 -130 -120 -66
-66 -124 -120 -130 -120 -6 0 -60 -49 -120 -110 -60 -60 -114 -110 -120 -110
-16 0 -60 -47 -60 -65 0 -8 -4 -15 -10 -15 -7 0 -10 -170 -10 -490 l0 -490 60
0 c33 0 60 4 60 10 0 6 14 10 30 10 17 0 30 5 30 10 0 6 9 10 19 10 11 0 23 5
26 10 3 6 17 10 31 10 13 0 24 5 24 10 0 6 14 10 30 10 17 0 30 5 30 10 0 6
14 10 30 10 17 0 30 5 30 10 0 6 14 10 30 10 17 0 30 5 30 10 0 6 14 10 30 10
17 0 30 5 30 10 0 6 14 10 30 10 17 0 30 5 30 10 0 6 9 10 20 10 11 0 20 5 20
10 0 6 14 10 30 10 17 0 30 5 30 10 0 6 14 10 30 10 17 0 30 5 30 10 0 6 14
10 30 10 17 0 30 5 30 10 0 6 9 10 19 10 11 0 23 5 26 10 3 6 17 10 31 10 13
0 24 5 24 10 0 6 14 10 30 10 17 0 30 5 30 10 0 6 14 10 30 10 17 0 30 5 30
10 0 6 14 10 30 10 17 0 30 5 30 10 0 6 9 10 20 10 11 0 20 5 20 10 0 6 14 10
30 10 17 0 30 5 30 10 0 6 9 10 20 10 11 0 20 5 20 10 0 6 5 10 11 10 12 0 49
38 49 50 0 5 14 22 30 40 17 18 30 36 30 40 0 4 14 22 30 40 17 18 30 36 30
40 0 4 14 22 30 40 17 18 30 36 30 40 0 4 14 22 30 40 17 18 30 36 30 41 0 4
11 19 24 32 13 13 29 34 36 48 7 13 24 32 37 42 12 10 23 24 23 31 0 7 14 25
30 41 17 16 30 34 30 40 0 6 14 24 30 40 17 16 30 34 30 40 0 6 14 24 30 40
17 16 30 34 30 40 0 6 14 24 30 40 17 16 30 34 30 40 0 6 14 24 30 40 17 16
30 33 30 37 0 5 13 23 30 41 16 18 30 36 30 40 0 4 13 22 30 40 16 18 30 36
30 40 0 4 13 22 30 40 16 18 30 36 30 40 0 5 16 25 35 45 19 20 35 41 35 45 0
5 6 23 14 40 12 28 32 125 56 282 4 28 18 104 30 170 12 66 26 147 32 180 5
33 13 83 18 110 11 64 29 176 40 240 4 28 22 131 40 230 18 99 36 207 42 240
5 33 13 83 18 110 5 28 13 79 19 115 6 36 15 88 21 115 6 28 15 77 20 110 5
33 14 80 19 105 24 117 32 159 41 215 5 33 11 69 14 80 2 11 10 47 16 80 6 33
15 78 20 100 5 22 14 67 20 100 21 107 27 137 82 362 l53 221 50 -3 c28 -2 53
-4 58 -4 4 -1 7 -12 7 -26 0 -14 5 -25 10 -25 6 0 10 -20 10 -45 0 -25 5 -45
10 -45 6 0 10 -20 10 -45 0 -25 5 -45 10 -45 6 0 10 -18 10 -40 0 -22 5 -40
10 -40 6 0 10 -20 10 -45 0 -25 5 -45 10 -45 6 0 10 -22 10 -50 0 -27 5 -50
10 -50 6 0 10 -20 10 -45 0 -25 5 -45 10 -45 6 0 10 -22 10 -50 0 -27 5 -50
10 -50 6 0 10 -22 10 -50 0 -27 5 -50 10 -50 6 0 10 -25 10 -55 0 -30 5 -55
10 -55 6 0 10 -25 10 -55 0 -30 5 -55 10 -55 6 0 10 -22 10 -50 0 -27 5 -50
10 -50 6 0 10 -24 10 -54 0 -30 5 -58 10 -61 6 -3 10 -26 10 -50 0 -24 5 -47
10 -50 6 -3 10 -30 10 -60 0 -30 5 -57 10 -60 6 -3 10 -28 10 -56 0 -27 5 -49
10 -49 6 0 10 -24 10 -54 0 -30 5 -58 10 -61 6 -3 10 -30 10 -60 0 -30 5 -57
10 -60 6 -3 10 -30 10 -60 0 -30 5 -57 10 -60 6 -3 10 -30 10 -60 0 -30 5 -57
10 -60 6 -3 10 -28 10 -56 0 -27 5 -49 10 -49 6 0 10 -27 10 -60 0 -33 4 -60
10 -60 6 0 10 -24 10 -54 0 -30 5 -58 10 -61 6 -3 10 -30 10 -60 0 -30 5 -57
10 -60 6 -3 10 -30 10 -60 0 -30 5 -57 10 -60 6 -3 10 -28 10 -56 0 -27 5 -49
10 -49 6 0 10 -27 10 -60 0 -33 4 -60 10 -60 6 0 10 -24 10 -54 0 -30 5 -58
10 -61 6 -3 10 -30 10 -60 0 -30 5 -57 10 -60 6 -3 10 -24 10 -46 0 -21 5 -39
10 -39 6 0 10 -8 10 -18 0 -10 9 -24 20 -32 11 -8 20 -20 20 -26 0 -6 14 -25
30 -42 17 -18 30 -36 30 -40 0 -5 14 -23 30 -40 17 -18 30 -36 30 -40 0 -5 14
-23 30 -40 17 -18 30 -35 30 -39 0 -5 14 -22 30 -40 17 -18 30 -36 30 -40 0
-4 14 -22 30 -40 17 -18 30 -36 30 -40 0 -4 18 -27 40 -51 22 -23 40 -46 40
-51 0 -4 14 -22 30 -39 17 -18 30 -36 30 -40 0 -5 14 -23 30 -40 17 -18 30
-35 30 -40 0 -4 16 -25 35 -46 19 -21 35 -42 35 -46 0 -4 14 -22 30 -40 17
-18 30 -36 30 -40 0 -4 14 -22 30 -40 17 -18 30 -36 30 -40 0 -4 14 -22 30
-40 17 -18 30 -36 30 -40 0 -4 14 -22 30 -40 17 -18 30 -36 30 -40 0 -4 14
-22 30 -40 17 -18 30 -36 30 -40 0 -13 77 -90 89 -90 6 0 11 -4 11 -10 0 -5
14 -10 30 -10 17 0 30 -4 30 -10 0 -5 14 -10 30 -10 17 0 30 -4 30 -10 0 -5
14 -10 30 -10 17 0 30 -4 30 -10 0 -5 9 -10 19 -10 11 0 23 -4 26 -10 3 -5 17
-10 30 -10 13 0 27 -4 30 -10 3 -5 17 -10 31 -10 13 0 24 -4 24 -10 0 -5 14
-10 30 -10 17 0 30 -4 30 -10 0 -5 14 -10 30 -10 17 0 30 -4 30 -10 0 -5 14
-10 30 -10 17 0 30 -4 30 -10 0 -5 14 -10 30 -10 17 0 30 -4 30 -10 0 -5 9
-10 19 -10 11 0 23 -4 26 -10 3 -6 17 -10 31 -10 13 0 24 -4 24 -10 0 -5 14
-10 30 -10 17 0 30 -4 30 -10 0 -5 14 -10 30 -10 17 0 30 -4 30 -10 0 -5 14
-10 30 -10 17 0 30 -4 30 -10 0 -5 9 -10 19 -10 11 0 23 -4 26 -10 3 -5 17
-10 31 -10 13 0 24 -4 24 -10 0 -5 14 -10 30 -10 17 0 30 -4 30 -10 0 -5 14
-10 30 -10 17 0 30 -4 30 -10 0 -5 18 -10 39 -10 22 0 43 -4 46 -10 22 -35 25
26 25 485 l0 495 -135 135 c-74 74 -140 135 -145 135 -6 0 -60 50 -120 110
-60 61 -114 110 -120 110 -6 0 -55 45 -110 100 -55 55 -104 100 -110 100 -6 0
-60 50 -120 110 -60 61 -114 110 -120 110 -6 0 -55 45 -110 100 -55 55 -104
100 -110 100 -6 0 -46 36 -90 80 -44 44 -85 80 -92 80 -8 0 -20 9 -28 20 -15
21 -50 28 -50 10 0 -5 5 -10 10 -10 6 0 10 -15 10 -34 0 -19 5 -38 10 -41 6
-3 10 -19 10 -36 0 -16 5 -29 10 -29 6 0 10 -18 10 -40 0 -22 5 -40 10 -40 6
0 10 -13 10 -30 0 -16 5 -30 10 -30 6 0 10 -18 10 -40 0 -22 5 -40 10 -40 6 0
10 -15 10 -34 0 -19 5 -38 10 -41 6 -3 10 -19 10 -36 0 -16 5 -29 10 -29 6 0
10 -18 10 -40 0 -22 5 -40 10 -40 6 0 10 -13 10 -30 0 -16 5 -30 10 -30 6 0
10 -16 10 -36 0 -30 8 -43 48 -80 26 -24 51 -44 55 -44 4 0 22 -13 40 -30 18
-16 38 -30 45 -30 6 0 12 -4 12 -8 0 -5 12 -15 28 -23 15 -8 41 -26 57 -41 17
-16 35 -28 41 -28 6 0 19 -9 29 -20 10 -11 24 -20 32 -20 7 0 13 -4 13 -8 0
-5 12 -15 28 -23 15 -8 41 -26 57 -41 17 -16 35 -28 41 -28 6 0 19 -9 29 -20
10 -11 22 -20 27 -20 5 0 23 -13 41 -30 18 -16 36 -30 40 -30 4 0 22 -13 40
-30 18 -16 36 -30 40 -30 4 0 22 -13 40 -30 18 -16 35 -30 39 -30 8 0 36 -22
63 -47 8 -7 18 -13 23 -13 6 0 13 -8 16 -17 7 -16 0 -155 -10 -220 -5 -36 -23
-42 -48 -18 -8 8 -19 15 -24 15 -5 0 -17 9 -27 20 -10 11 -23 20 -30 20 -7 0
-20 9 -30 20 -10 11 -23 20 -29 20 -6 0 -25 14 -43 30 -18 17 -36 30 -41 30
-5 0 -23 14 -40 30 -18 17 -38 30 -45 30 -7 0 -19 9 -27 20 -8 11 -21 20 -28
20 -8 0 -27 14 -42 30 -15 17 -33 30 -40 30 -7 0 -25 14 -40 30 -15 17 -33 30
-40 30 -7 0 -25 14 -40 30 -15 17 -33 30 -40 30 -7 0 -25 14 -40 30 -15 17
-33 30 -40 30 -7 0 -25 14 -40 30 -15 17 -33 30 -40 30 -7 0 -25 14 -40 30
-15 17 -33 30 -40 30 -7 0 -25 14 -40 30 -15 17 -33 30 -40 30 -7 0 -25 14
-40 30 -15 17 -33 30 -40 30 -16 0 -40 26 -40 44 0 9 -4 16 -10 16 -5 0 -10
14 -10 30 0 17 -4 30 -10 30 -5 0 -10 18 -10 40 0 22 -4 40 -10 40 -5 0 -10
14 -10 30 0 17 -4 30 -10 30 -5 0 -10 14 -10 30 0 17 -4 30 -10 30 -5 0 -10
18 -10 40 0 22 -4 40 -10 40 -5 0 -10 14 -10 30 0 17 -4 30 -10 30 -5 0 -10
14 -10 30 0 17 -4 30 -10 30 -5 0 -10 14 -10 30 0 17 -4 30 -10 30 -5 0 -10
18 -10 40 0 22 -4 40 -10 40 -5 0 -10 14 -10 30 0 17 -4 30 -10 30 -5 0 -10
14 -10 30 0 17 -4 30 -10 30 -5 0 -10 18 -10 40 0 22 -4 40 -10 40 -5 0 -10
14 -10 30 0 17 -4 30 -10 30 -5 0 -10 14 -10 30 0 17 -4 30 -10 30 -5 0 -10
18 -10 40 0 22 -4 40 -10 40 -5 0 -10 14 -10 30 0 17 -4 30 -10 30 -5 0 -10
14 -10 30 0 17 -4 30 -10 30 -5 0 -10 14 -10 30 0 17 -4 30 -10 30 -5 0 -10
18 -10 40 0 22 -4 40 -10 40 -5 0 -10 14 -10 30 0 17 -4 30 -10 30 -5 0 -10
14 -10 30 0 17 -4 30 -10 30 -5 0 -10 14 -10 30 0 17 -4 30 -10 30 -5 0 -10
18 -10 40 0 22 -4 40 -10 40 -5 0 -10 14 -10 30 0 17 -4 30 -10 30 -5 0 -10
14 -10 30 0 17 -4 30 -10 30 -5 0 -10 14 -10 30 0 17 -4 30 -10 30 -5 0 -10
18 -10 40 0 22 -4 40 -10 40 -5 0 -10 14 -10 30 0 17 -4 30 -10 30 -5 0 -10
14 -10 30 0 17 -4 30 -10 30 -5 0 -10 14 -10 30 0 17 -4 30 -10 30 -5 0 -10
18 -10 40 0 22 -4 40 -10 40 -5 0 -10 14 -10 30 0 17 -4 30 -10 30 -5 0 -10
14 -10 30 0 17 -4 30 -10 30 -5 0 -10 18 -10 40 0 22 -4 40 -10 40 -5 0 -10
14 -10 30 0 17 -4 30 -10 30 -5 0 -10 14 -10 30 0 17 -4 30 -10 30 -5 0 -10
14 -10 30 0 17 -4 30 -10 30 -5 0 -10 18 -10 40 0 22 -4 40 -10 40 -5 0 -10
14 -10 30 0 17 -4 30 -10 30 -5 0 -10 14 -10 30 0 17 -4 30 -10 30 -5 0 -10
18 -10 40 0 22 -4 40 -10 40 -5 0 -10 14 -10 30 0 17 -4 30 -10 30 -5 0 -10
14 -10 30 0 17 -4 30 -10 30 -5 0 -10 14 -10 30 0 17 -4 30 -10 30 -5 0 -10
18 -10 40 0 22 -4 40 -10 40 -5 0 -10 14 -10 30 0 17 -4 30 -10 30 -5 0 -10
14 -10 30 0 17 -4 30 -10 30 -5 0 -10 14 -10 30 0 17 -4 30 -10 30 -5 0 -10
14 -10 30 0 17 -4 30 -10 30 -5 0 -10 18 -10 40 0 22 -4 40 -10 40 -5 0 -10
14 -10 30 0 17 -4 30 -10 30 -5 0 -10 14 -10 30 0 17 -4 30 -10 30 -5 0 -10
14 -10 30 0 17 -4 30 -10 30 -5 0 -10 18 -10 40 0 22 -4 40 -10 40 -5 0 -10
14 -10 30 0 17 -4 30 -10 30 -5 0 -10 14 -10 30 0 17 -4 30 -10 30 -5 0 -10
18 -10 40 0 22 -4 40 -10 40 -5 0 -10 14 -10 30 0 17 -4 30 -10 30 -5 0 -10
18 -10 40 0 22 -4 40 -10 40 -5 0 -10 6 -10 14 0 23 -24 26 -223 26 -153 -1
-195 -4 -204 -15z"/>
<path d="M8763 9365 c-17 -18 -19 -1485 -3 -1485 7 0 10 -160 10 -460 0 -300
3 -460 10 -460 6 0 10 -18 10 -40 0 -22 5 -40 10 -40 6 0 10 -18 10 -40 0 -22
5 -40 10 -40 6 0 10 -18 10 -40 0 -22 5 -40 10 -40 6 0 10 -18 10 -40 0 -22 5
-40 10 -40 6 0 10 -18 10 -40 0 -22 5 -40 10 -40 6 0 10 -18 10 -40 0 -22 5
-40 10 -40 6 0 10 -13 10 -30 0 -22 5 -30 18 -30 13 0 22 20 40 93 12 51 22
100 22 110 0 9 5 17 10 17 6 0 10 18 10 40 0 22 5 40 10 40 6 0 10 18 10 40 0
22 5 40 10 40 6 0 10 18 10 40 0 22 5 40 10 40 6 0 10 18 10 40 0 22 5 40 10
40 6 0 10 97 10 270 0 173 4 270 10 270 7 0 10 320 10 940 l0 940 -167 0
c-132 -1 -171 -4 -180 -15z"/>
<path d="M8390 8900 c0 -11 -4 -20 -10 -20 -5 0 -10 -8 -10 -18 0 -10 -9 -24
-20 -32 -11 -8 -20 -21 -20 -30 0 -9 -9 -22 -20 -30 -11 -8 -20 -22 -20 -32 0
-10 -4 -18 -10 -18 -5 0 -10 -8 -10 -18 0 -10 -9 -24 -20 -32 -11 -8 -20 -22
-20 -32 0 -10 -4 -18 -10 -18 -5 0 -10 -8 -10 -18 0 -10 -9 -24 -20 -32 -11
-8 -20 -21 -20 -30 0 -9 -9 -22 -20 -30 -11 -8 -20 -22 -20 -32 0 -10 -4 -18
-10 -18 -5 0 -10 -6 -10 -13 0 -8 -9 -22 -20 -32 -11 -10 -20 -23 -20 -30 0
-7 -9 -20 -20 -30 -11 -10 -20 -23 -20 -30 0 -7 -9 -20 -20 -30 -11 -10 -20
-23 -20 -30 0 -7 -9 -20 -20 -30 -11 -10 -20 -23 -20 -29 0 -6 -14 -25 -30
-43 -17 -18 -30 -36 -30 -41 0 -5 -9 -17 -20 -27 -11 -10 -20 -25 -20 -34 0
-9 9 -23 20 -31 11 -8 20 -21 20 -28 0 -8 14 -27 30 -42 17 -15 30 -33 30 -40
0 -6 18 -29 40 -50 22 -21 40 -44 40 -50 0 -6 18 -29 40 -50 22 -21 40 -44 40
-50 0 -6 18 -29 40 -50 22 -21 40 -44 40 -50 0 -6 18 -29 40 -50 22 -21 40
-44 40 -50 0 -7 14 -25 30 -40 17 -15 30 -33 30 -40 0 -7 14 -25 30 -40 17
-15 30 -35 30 -44 0 -10 8 -16 22 -16 l21 0 -7 760 c-3 418 -9 774 -13 790 -6
34 -23 41 -23 10z"/>
<path d="M9447 8728 c-11 -309 -21 -1388 -13 -1388 11 0 76 68 76 80 0 7 18
29 40 50 22 21 40 44 40 50 0 7 14 25 30 40 17 15 30 33 30 40 0 6 18 29 40
50 22 21 40 44 40 50 0 6 18 29 40 50 22 21 40 44 40 50 0 7 14 25 30 40 17
15 30 33 30 40 0 6 18 29 40 50 22 21 40 45 40 52 0 7 9 20 20 28 14 10 20 26
20 52 0 21 -4 38 -8 38 -5 0 -15 12 -23 28 -8 15 -22 36 -31 46 -10 11 -18 26
-18 33 0 7 -4 13 -10 13 -5 0 -10 8 -10 18 0 10 -9 24 -20 32 -11 8 -20 21
-20 30 0 9 -9 22 -20 30 -11 8 -20 22 -20 32 0 10 -4 18 -8 18 -5 0 -15 12
-23 28 -8 15 -22 34 -31 43 -10 9 -18 24 -18 33 0 9 -4 16 -10 16 -5 0 -10 8
-10 18 0 10 -9 24 -20 32 -11 8 -20 21 -20 30 0 9 -9 22 -20 30 -11 8 -20 22
-20 32 0 10 -4 18 -10 18 -5 0 -10 8 -10 18 0 10 -9 24 -20 32 -11 8 -20 22
-20 32 0 10 -4 18 -10 18 -5 0 -10 8 -10 18 0 10 -9 24 -20 32 -11 8 -20 21
-20 30 0 9 -9 22 -20 30 -11 8 -20 22 -20 32 0 10 -4 18 -8 18 -5 0 -12 -87
-15 -192z"/>
<path d="M755 10591 c-3 -7 9 -26 27 -44 116 -111 218 -206 248 -229 19 -15
53 -43 75 -62 35 -31 168 -106 189 -106 4 0 28 -9 54 -21 26 -11 56 -24 67
-29 11 -5 50 -22 86 -39 37 -17 71 -31 75 -31 5 0 31 -11 57 -24 26 -14 64
-30 84 -37 19 -6 59 -24 88 -39 29 -15 69 -33 90 -40 21 -7 61 -25 90 -40 29
-15 69 -33 90 -40 21 -7 61 -25 90 -40 29 -15 70 -33 91 -40 22 -7 53 -21 69
-30 17 -9 46 -22 66 -29 20 -6 68 -27 105 -46 38 -19 73 -35 78 -35 5 0 47
-18 95 -41 47 -22 95 -44 106 -49 11 -5 59 -27 106 -49 48 -23 90 -41 95 -41
5 0 49 -20 98 -45 49 -24 103 -49 121 -55 18 -6 72 -31 121 -55 49 -25 93 -45
98 -45 5 0 57 -23 115 -51 58 -28 115 -54 126 -59 11 -5 79 -36 150 -70 72
-34 148 -70 170 -80 22 -10 69 -32 105 -49 36 -16 77 -33 93 -36 15 -4 30 -11
33 -16 3 -5 14 -9 26 -9 18 0 19 4 14 38 -7 39 -19 123 -36 245 -5 39 -13 108
-16 152 -6 75 -19 105 -43 105 -6 0 -11 5 -11 10 0 6 -13 10 -30 10 -16 0 -30
5 -30 10 0 6 -13 10 -30 10 -16 0 -30 5 -30 10 0 6 -13 10 -30 10 -16 0 -30 5
-30 10 0 6 -9 10 -20 10 -11 0 -20 5 -20 10 0 6 -13 10 -30 10 -16 0 -30 5
-30 10 0 6 -13 10 -30 10 -16 0 -30 5 -30 10 0 6 -13 10 -30 10 -16 0 -30 5
-30 10 0 6 -9 10 -20 10 -11 0 -20 5 -20 10 0 6 -13 10 -30 10 -16 0 -30 5
-30 10 0 6 -13 10 -30 10 -16 0 -30 5 -30 10 0 6 -13 10 -30 10 -16 0 -30 5
-30 10 0 6 -9 10 -20 10 -11 0 -20 5 -20 10 0 6 -13 10 -30 10 -16 0 -30 5
-30 10 0 6 -13 10 -30 10 -16 0 -30 5 -30 10 0 6 -9 10 -20 10 -11 0 -20 5
-20 10 0 6 -13 10 -30 10 -16 0 -30 5 -30 10 0 6 -13 10 -30 10 -16 0 -30 5
-30 10 0 6 -13 10 -30 10 -16 0 -30 5 -30 10 0 6 -9 10 -20 10 -11 0 -20 5
-20 10 0 6 -13 10 -30 10 -16 0 -30 5 -30 10 0 6 -13 10 -30 10 -16 0 -30 5
-30 10 0 6 -13 10 -30 10 -16 0 -30 5 -30 10 0 6 -9 10 -20 10 -11 0 -20 5
-20 10 0 6 -13 10 -30 10 -16 0 -30 5 -30 10 0 6 -13 10 -30 10 -16 0 -30 5
-30 10 0 6 -9 10 -20 10 -11 0 -20 5 -20 10 0 6 -13 10 -30 10 -16 0 -30 5
-30 10 0 6 -13 10 -30 10 -16 0 -30 5 -30 10 0 6 -13 10 -30 10 -16 0 -30 5
-30 10 0 6 -13 10 -30 10 -16 0 -30 5 -30 10 0 6 -9 10 -19 10 -11 0 -23 5
-26 10 -3 6 -17 10 -31 10 -13 0 -24 5 -24 10 0 6 -13 10 -30 10 -16 0 -30 5
-30 10 0 6 -13 10 -30 10 -16 0 -30 5 -30 10 0 6 -9 10 -19 10 -11 0 -23 5
-26 10 -3 6 -17 10 -31 10 -13 0 -24 5 -24 10 0 6 -13 10 -30 10 -16 0 -30 5
-30 10 0 6 -13 10 -30 10 -16 0 -30 5 -30 10 0 6 -13 10 -30 10 -16 0 -30 5
-30 10 0 6 -9 10 -19 10 -11 0 -23 5 -26 10 -3 6 -17 10 -31 10 -13 0 -24 5
-24 10 0 6 -13 10 -30 10 -16 0 -30 5 -30 10 0 6 -13 10 -30 10 -16 0 -30 5
-30 10 0 6 -13 10 -30 10 -16 0 -30 5 -30 10 0 6 -9 10 -19 10 -11 0 -23 5
-26 10 -3 6 -17 10 -31 10 -13 0 -24 5 -24 10 0 6 -13 10 -30 10 -16 0 -30 5
-30 10 0 6 -13 10 -30 10 -16 0 -30 5 -30 10 0 6 -13 10 -30 10 -16 0 -30 5
-30 10 0 6 -13 10 -30 10 -16 0 -30 5 -30 10 0 6 -13 10 -30 10 -16 0 -30 5
-30 10 0 6 -13 10 -30 10 -16 0 -30 5 -30 10 0 6 -13 10 -30 10 -16 0 -30 5
-30 10 0 6 -13 10 -30 10 -16 0 -30 5 -30 10 0 6 -9 10 -19 10 -11 0 -23 5
-26 10 -3 6 -17 10 -30 10 -13 0 -27 5 -30 10 -3 6 -17 10 -30 10 -13 0 -27 5
-30 10 -3 6 -17 10 -30 10 -13 0 -27 5 -30 10 -3 6 -17 10 -30 10 -13 0 -27 5
-30 10 -3 6 -16 10 -29 10 -12 0 -27 5 -33 11 -8 8 -13 8 -18 0z"/>
<path d="M17090 10590 c0 -5 -13 -10 -30 -10 -16 0 -30 -4 -30 -10 0 -5 -9
-10 -19 -10 -11 0 -23 -4 -26 -10 -3 -5 -17 -10 -31 -10 -13 0 -24 -4 -24 -10
0 -5 -13 -10 -30 -10 -16 0 -30 -4 -30 -10 0 -5 -13 -10 -30 -10 -16 0 -30 -4
-30 -10 0 -5 -13 -10 -30 -10 -16 0 -30 -4 -30 -10 0 -5 -13 -10 -30 -10 -16
0 -30 -4 -30 -10 0 -5 -13 -10 -30 -10 -16 0 -30 -4 -30 -10 0 -5 -9 -10 -19
-10 -11 0 -23 -4 -26 -10 -3 -5 -17 -10 -31 -10 -13 0 -24 -4 -24 -10 0 -5
-13 -10 -30 -10 -16 0 -30 -4 -30 -10 0 -5 -13 -10 -30 -10 -16 0 -30 -4 -30
-10 0 -5 -13 -10 -30 -10 -16 0 -30 -4 -30 -10 0 -5 -9 -10 -20 -10 -11 0 -20
-4 -20 -10 0 -5 -13 -10 -30 -10 -16 0 -30 -4 -30 -10 0 -5 -13 -10 -30 -10
-16 0 -30 -4 -30 -10 0 -5 -9 -10 -20 -10 -11 0 -20 -4 -20 -10 0 -5 -13 -10
-30 -10 -16 0 -30 -4 -30 -10 0 -5 -13 -10 -30 -10 -16 0 -30 -4 -30 -10 0 -5
-13 -10 -30 -10 -16 0 -30 -4 -30 -10 0 -5 -13 -10 -30 -10 -16 0 -30 -4 -30
-10 0 -5 -9 -10 -20 -10 -11 0 -20 -4 -20 -10 0 -5 -13 -10 -30 -10 -16 0 -30
-4 -30 -10 0 -5 -13 -10 -30 -10 -16 0 -30 -4 -30 -10 0 -5 -13 -10 -30 -10
-16 0 -30 -4 -30 -10 0 -5 -9 -10 -19 -10 -11 0 -23 -4 -26 -10 -3 -5 -17 -10
-31 -10 -13 0 -24 -4 -24 -10 0 -5 -13 -10 -30 -10 -16 0 -30 -4 -30 -10 0 -5
-13 -10 -30 -10 -16 0 -30 -4 -30 -10 0 -5 -9 -10 -19 -10 -11 0 -23 -4 -26
-10 -3 -5 -17 -10 -31 -10 -13 0 -24 -4 -24 -10 0 -5 -13 -10 -30 -10 -16 0
-30 -4 -30 -10 0 -5 -13 -10 -30 -10 -16 0 -30 -4 -30 -10 0 -5 -9 -10 -19
-10 -11 0 -23 -4 -26 -10 -3 -5 -17 -10 -31 -10 -13 0 -24 -4 -24 -10 0 -5
-13 -10 -30 -10 -16 0 -30 -4 -30 -10 0 -5 -13 -10 -30 -10 -16 0 -30 -4 -30
-10 0 -5 -13 -10 -30 -10 -16 0 -30 -4 -30 -10 0 -5 -13 -10 -30 -10 -16 0
-30 -4 -30 -10 0 -5 -9 -10 -20 -10 -11 0 -20 -4 -20 -10 0 -5 -13 -10 -30
-10 -16 0 -30 -4 -30 -10 0 -5 -13 -10 -30 -10 -16 0 -30 -4 -30 -10 0 -5 -13
-10 -30 -10 -16 0 -30 -4 -30 -10 0 -5 -13 -10 -30 -10 -16 0 -30 -4 -30 -10
0 -5 -13 -10 -30 -10 -16 0 -30 -4 -30 -10 0 -5 -13 -10 -30 -10 -16 0 -30 -4
-30 -10 0 -5 -9 -10 -20 -10 -11 0 -20 -4 -20 -10 0 -5 -13 -10 -30 -10 -16 0
-30 -4 -30 -10 0 -5 -13 -10 -30 -10 -16 0 -30 -4 -30 -10 0 -5 -13 -10 -30
-10 -16 0 -30 -4 -30 -10 0 -5 -9 -10 -20 -10 -11 0 -20 -4 -20 -10 0 -5 -13
-10 -30 -10 -16 0 -30 -4 -30 -10 0 -5 -13 -10 -30 -10 -16 0 -30 -4 -30 -10
0 -5 -13 -10 -30 -10 -16 0 -30 -4 -30 -10 0 -5 -13 -10 -30 -10 -16 0 -30 -4
-30 -10 0 -5 -13 -10 -30 -10 -16 0 -30 -4 -30 -10 0 -5 -9 -10 -20 -10 -11 0
-20 -4 -20 -10 0 -5 -13 -10 -30 -10 -16 0 -30 -4 -30 -10 0 -5 -13 -10 -30
-10 -16 0 -30 -4 -30 -10 0 -5 -13 -10 -30 -10 -16 0 -30 -4 -30 -10 0 -5 -8
-10 -18 -10 -16 0 -21 -14 -31 -87 -7 -49 -16 -108 -21 -133 -4 -25 -14 -79
-20 -120 -6 -41 -16 -94 -21 -117 -16 -72 -13 -83 21 -83 17 0 30 5 30 10 0 6
9 10 20 10 11 0 20 5 20 10 0 6 7 10 15 10 8 0 30 9 50 20 20 11 44 20 55 20
11 0 20 5 20 10 0 6 9 10 20 10 11 0 20 5 20 10 0 6 9 10 20 10 11 0 20 5 20
10 0 6 9 10 20 10 11 0 20 5 20 10 0 6 9 10 20 10 11 0 20 5 20 10 0 6 7 10
15 10 8 0 30 9 50 20 20 11 44 20 55 20 11 0 20 5 20 10 0 6 9 10 20 10 11 0
20 5 20 10 0 6 9 10 20 10 11 0 20 5 20 10 0 6 9 10 20 10 11 0 20 5 20 10 0
6 9 10 19 10 11 0 23 5 26 10 3 6 17 10 31 10 13 0 24 5 24 10 0 6 9 10 20 10
11 0 20 5 20 10 0 6 9 10 20 10 11 0 20 5 20 10 0 6 9 10 20 10 11 0 20 5 20
10 0 6 9 10 19 10 11 0 23 5 26 10 3 6 17 10 31 10 13 0 24 5 24 10 0 6 9 10
20 10 11 0 20 5 20 10 0 6 9 10 20 10 11 0 20 5 20 10 0 6 9 10 20 10 11 0 20
5 20 10 0 6 14 10 30 10 17 0 30 5 30 10 0 6 9 10 20 10 11 0 20 5 20 10 0 6
9 10 20 10 11 0 20 5 20 10 0 6 9 10 20 10 11 0 20 5 20 10 0 6 9 10 19 10 11
0 23 5 26 10 3 6 17 10 31 10 13 0 24 5 24 10 0 6 9 10 20 10 11 0 20 5 20 10
0 6 9 10 20 10 11 0 20 5 20 10 0 6 9 10 19 10 11 0 23 5 26 10 3 6 17 10 31
10 13 0 24 5 24 10 0 6 9 10 20 10 11 0 20 5 20 10 0 6 9 10 20 10 11 0 20 5
20 10 0 6 9 10 20 10 11 0 20 5 20 10 0 6 9 10 19 10 11 0 23 5 26 10 3 6 17
10 31 10 13 0 24 5 24 10 0 6 9 10 20 10 11 0 20 5 20 10 0 6 9 10 20 10 11 0
20 5 20 10 0 6 9 10 19 10 11 0 23 5 26 10 3 6 17 10 31 10 13 0 24 5 24 10 0
6 9 10 20 10 11 0 20 5 20 10 0 6 9 10 20 10 11 0 20 5 20 10 0 6 14 10 30 10
17 0 30 5 30 10 0 6 9 10 20 10 11 0 20 5 20 10 0 6 9 10 20 10 11 0 20 5 20
10 0 6 9 10 19 10 11 0 23 5 26 10 3 6 17 10 31 10 13 0 24 5 24 10 0 6 9 10
20 10 11 0 20 5 20 10 0 6 9 10 20 10 11 0 20 5 20 10 0 6 14 10 30 10 17 0
30 5 30 10 0 6 9 10 20 10 11 0 20 5 20 10 0 6 9 10 20 10 11 0 20 5 20 10 0
6 9 10 19 10 11 0 23 5 26 10 3 6 17 10 31 10 13 0 24 5 24 10 0 6 9 10 20 10
11 0 20 5 20 10 0 6 9 10 20 10 11 0 20 5 20 10 0 6 9 10 19 10 11 0 23 5 26
10 3 6 17 10 31 10 13 0 24 5 24 10 0 6 9 10 20 10 11 0 20 5 20 10 0 6 9 10
19 10 11 0 23 5 26 10 3 6 17 10 31 10 13 0 24 5 24 10 0 6 9 10 20 10 11 0
20 5 20 10 0 6 9 10 20 10 11 0 20 5 20 10 0 6 6 10 13 10 18 0 67 24 67 33 0
4 6 7 14 7 7 0 26 12 42 28 16 15 58 52 94 82 35 30 90 79 121 109 32 29 68
61 81 69 27 19 88 79 88 87 0 3 -9 5 -20 5 -11 0 -20 -4 -20 -10z"/>
<path d="M13585 4399 c-239 -20 -376 -71 -483 -181 -58 -58 -112 -143 -112
-175 0 -7 -4 -21 -9 -31 -42 -80 -53 -263 -48 -817 5 -485 10 -601 28 -619 5
-6 9 -20 9 -33 0 -13 5 -33 12 -46 6 -12 16 -31 21 -42 39 -76 57 -102 102
-146 51 -50 77 -68 125 -89 14 -6 34 -15 45 -20 115 -56 260 -70 718 -70 497
0 572 8 727 83 89 42 172 113 200 172 8 17 23 39 33 49 9 11 17 30 17 42 0 13
5 26 10 29 6 3 10 17 10 30 0 13 5 27 10 30 6 3 10 21 10 40 0 19 5 37 10 40
6 4 10 222 10 621 0 403 -3 614 -10 614 -5 0 -10 18 -10 40 0 22 -4 40 -10 40
-5 0 -10 13 -10 29 0 17 -4 33 -10 36 -5 3 -10 17 -10 31 0 13 -4 24 -10 24
-5 0 -10 9 -10 20 0 11 -4 20 -8 20 -5 0 -15 12 -23 28 -25 48 -118 129 -194
169 -96 50 -197 71 -395 83 -180 11 -614 10 -745 -1z m899 -437 c49 -29 66
-46 66 -66 0 -9 4 -16 9 -16 20 0 24 -101 25 -620 1 -410 -2 -555 -11 -585
-16 -50 -56 -95 -108 -120 -37 -19 -67 -20 -440 -23 -389 -3 -515 4 -515 29 0
5 -8 9 -18 9 -11 0 -28 8 -39 18 -27 23 -63 87 -63 112 0 10 -4 22 -10 25 -6
4 -10 192 -10 530 0 338 4 526 10 530 6 3 10 19 10 34 0 30 20 81 33 81 4 0 7
5 7 11 0 24 54 58 110 70 19 4 231 7 470 6 435 -2 435 -2 474 -25z"/>
<path d="M5722 4383 l-472 -3 2 -1108 3 -1107 218 -3 217 -2 0 365 0 365 88 1
c48 1 249 3 447 4 361 2 427 7 510 41 91 37 135 58 135 65 0 4 9 10 19 14 24
7 129 111 142 140 5 11 18 34 29 50 24 37 23 33 48 125 34 120 46 288 32 443
-7 73 -16 140 -21 149 -5 10 -9 29 -9 43 0 14 -4 33 -9 43 -5 9 -19 40 -32 67
-13 28 -27 52 -31 53 -5 2 -8 8 -8 13 0 17 -49 69 -105 112 -41 31 -148 81
-215 100 -61 18 -312 38 -435 34 -44 -1 -293 -3 -553 -4z m847 -418 c60 -14
121 -90 121 -150 0 -19 5 -35 10 -35 6 0 10 -52 10 -135 0 -83 -4 -135 -10
-135 -5 0 -10 -22 -10 -48 0 -36 -5 -51 -20 -62 -11 -8 -20 -20 -20 -27 0 -7
-4 -13 -9 -13 -5 0 -17 -7 -26 -16 -37 -38 -105 -44 -507 -44 -212 0 -393 3
-402 6 -14 5 -16 44 -16 333 0 180 3 331 7 335 9 9 830 1 872 -9z"/>
<path d="M10143 4383 l-473 -3 0 -1110 0 -1110 218 2 217 3 3 908 2 907 434 0
c279 0 437 -4 441 -10 3 -5 16 -10 28 -10 26 -1 97 -62 97 -84 0 -9 5 -16 10
-16 17 0 13 -330 -5 -360 -8 -14 -17 -32 -21 -40 -12 -24 -44 -48 -78 -59 -17
-5 -177 -12 -355 -15 -179 -4 -327 -8 -329 -10 -2 -2 132 -207 297 -455 166
-248 301 -455 301 -461 0 -5 5 -10 10 -10 6 0 10 -7 10 -15 0 -8 5 -15 10 -15
6 0 10 -7 10 -15 0 -8 5 -15 10 -15 6 0 10 -7 10 -15 0 -8 5 -15 10 -15 6 0
10 -7 10 -15 0 -8 5 -15 10 -15 6 0 10 -6 10 -13 0 -7 8 -22 18 -33 9 -10 23
-31 31 -46 8 -16 18 -28 23 -28 4 0 8 -6 8 -14 0 -30 52 -36 285 -34 197 3
230 5 233 18 1 9 -6 24 -16 35 -10 11 -25 35 -32 53 -8 17 -18 32 -22 32 -5 0
-8 7 -8 15 0 8 -4 15 -10 15 -5 0 -10 7 -10 15 0 8 -4 15 -10 15 -5 0 -10 7
-10 15 0 8 -4 15 -10 15 -5 0 -10 7 -10 15 0 8 -4 15 -10 15 -5 0 -10 7 -10
15 0 8 -4 15 -10 15 -5 0 -10 6 -10 13 0 7 -8 22 -17 33 -10 10 -24 31 -32 47
-8 15 -18 27 -23 27 -4 0 -8 6 -8 13 0 7 -8 22 -17 33 -10 10 -24 31 -32 47
-8 15 -18 27 -23 27 -4 0 -8 6 -8 13 0 7 -8 22 -17 33 -10 10 -24 31 -32 47
-8 15 -18 27 -23 27 -4 0 -8 6 -8 13 0 7 -9 23 -20 35 -11 12 -20 25 -20 30 0
4 -8 17 -17 28 -51 58 -54 88 -10 103 49 18 196 90 213 104 57 47 134 129 134
141 0 9 5 16 10 16 6 0 10 9 10 20 0 11 5 20 10 20 6 0 10 9 10 20 0 11 5 20
10 20 6 0 10 18 10 40 0 22 5 40 10 40 6 0 10 37 10 90 0 53 4 90 10 90 6 0
10 32 10 75 0 43 -4 75 -10 75 -6 0 -10 35 -10 85 0 50 -4 85 -10 85 -5 0 -10
16 -10 35 0 19 -4 35 -10 35 -5 0 -10 11 -10 25 0 14 -4 25 -10 25 -5 0 -10
10 -10 23 0 12 -9 29 -20 37 -11 8 -20 20 -20 27 0 7 -4 13 -10 13 -5 0 -10 5
-10 10 0 16 -88 100 -105 100 -8 0 -15 5 -15 10 0 6 -7 10 -16 10 -8 0 -22 6
-30 14 -18 18 -135 55 -216 67 -84 13 -354 16 -925 12z"/>
<path d="M592 3273 l3 -1108 218 -3 217 -2 0 449 c0 435 1 451 19 461 13 6
194 10 519 10 447 0 501 -2 506 -16 3 -9 6 -213 6 -454 0 -390 2 -439 16 -444
23 -9 407 -7 422 2 10 7 12 235 10 1108 l-3 1099 -220 0 -220 0 -5 -445 -5
-445 -520 0 -520 0 -5 445 -5 445 -218 3 -217 2 2 -1107z"/>
<path d="M2810 4376 c0 -11 24 -56 30 -56 3 0 17 -22 31 -50 13 -27 27 -50 30
-50 4 0 12 -13 19 -30 7 -16 16 -30 20 -30 4 0 13 -13 20 -30 7 -16 16 -30 21
-30 4 0 11 -9 14 -20 3 -11 12 -26 18 -33 17 -18 47 -69 54 -89 3 -10 9 -18
13 -18 4 0 13 -13 20 -30 7 -16 16 -30 20 -30 4 0 13 -13 20 -30 7 -16 16 -30
21 -30 5 0 9 -6 9 -13 0 -7 8 -22 18 -33 10 -10 25 -34 32 -51 8 -18 18 -33
22 -33 5 0 8 -7 8 -15 0 -8 5 -15 10 -15 6 0 10 -6 10 -13 0 -7 9 -23 20 -35
11 -12 20 -26 20 -32 0 -5 5 -10 10 -10 6 0 10 -7 10 -15 0 -8 5 -15 10 -15 6
0 10 -7 10 -15 0 -8 5 -15 10 -15 6 0 10 -7 10 -15 0 -8 5 -15 10 -15 6 0 10
-7 10 -15 0 -8 5 -15 10 -15 6 0 10 -7 10 -15 0 -9 9 -25 20 -37 11 -12 20
-28 20 -35 0 -7 5 -13 10 -13 6 0 10 -7 10 -15 0 -8 5 -15 10 -15 6 0 10 -7
10 -15 0 -8 5 -15 10 -15 6 0 10 -7 10 -15 0 -8 5 -15 10 -15 6 0 10 -7 10
-15 0 -8 5 -15 10 -15 6 0 10 -7 10 -15 0 -8 5 -15 10 -15 6 0 10 -7 10 -15 0
-8 5 -15 10 -15 6 0 10 -7 10 -15 0 -8 5 -15 10 -15 6 0 10 -7 10 -15 0 -8 5
-15 10 -15 6 0 10 -9 10 -20 0 -11 5 -20 10 -20 6 0 10 -8 10 -18 0 -10 4 -22
10 -28 6 -6 11 -171 12 -434 l3 -425 208 -3 207 -2 1 32 c1 18 2 209 3 423 1
379 2 391 23 436 12 25 29 52 38 59 8 7 15 18 15 25 0 6 9 20 20 30 11 10 20
23 20 30 0 7 9 20 20 30 11 10 20 22 20 27 0 5 14 29 30 53 17 24 30 48 30 53
0 5 9 17 20 27 11 10 20 23 20 30 0 7 9 20 20 30 11 10 20 23 20 30 0 7 9 20
20 30 11 10 20 23 20 30 0 7 9 20 20 30 11 10 20 23 20 30 0 6 8 20 18 31 10
10 25 35 35 55 9 20 23 42 32 49 8 7 15 18 15 25 0 6 9 20 20 30 11 10 20 24
20 30 0 7 7 18 15 25 9 7 23 28 31 46 9 19 20 34 25 34 5 0 9 5 9 11 0 6 14
31 30 56 17 24 30 48 30 52 0 4 9 16 20 26 11 10 20 23 20 30 0 7 9 20 20 30
11 10 20 23 20 30 0 6 8 20 18 31 10 10 25 35 35 55 9 20 23 42 32 49 8 7 15
18 15 25 0 6 9 20 20 30 11 10 20 22 20 27 0 4 -107 8 -238 8 -219 0 -241 -2
-260 -19 -12 -10 -22 -24 -22 -30 0 -7 -9 -21 -20 -33 -11 -12 -20 -28 -20
-35 0 -7 -4 -13 -10 -13 -5 0 -10 -8 -10 -18 0 -10 -9 -24 -20 -32 -11 -8 -20
-21 -20 -30 0 -9 -9 -22 -20 -30 -11 -8 -20 -21 -20 -30 0 -9 -9 -22 -20 -30
-11 -8 -20 -21 -20 -30 0 -9 -9 -22 -20 -30 -11 -8 -20 -22 -20 -32 0 -10 -4
-18 -10 -18 -5 0 -10 -7 -10 -15 0 -8 -4 -15 -10 -15 -5 0 -10 -7 -10 -15 0
-8 -4 -15 -10 -15 -5 0 -10 -8 -10 -18 0 -10 -9 -24 -20 -32 -11 -8 -20 -21
-20 -30 0 -9 -9 -22 -20 -30 -11 -8 -20 -21 -20 -30 0 -9 -9 -22 -20 -30 -11
-8 -20 -21 -20 -30 0 -9 -9 -22 -20 -30 -11 -8 -20 -21 -20 -30 0 -9 -9 -22
-20 -30 -11 -8 -20 -22 -20 -32 0 -10 -4 -18 -10 -18 -5 0 -10 -7 -10 -15 0
-8 -4 -15 -10 -15 -5 0 -10 -7 -10 -15 0 -8 -4 -15 -10 -15 -5 0 -10 -7 -10
-15 0 -16 -9 -19 -26 -7 -15 10 -74 99 -74 111 0 6 -4 11 -10 11 -5 0 -10 5
-10 10 0 6 -30 57 -68 113 -37 56 -74 114 -81 130 -8 15 -18 27 -23 27 -4 0
-8 5 -8 10 0 6 -30 57 -68 113 -37 56 -74 114 -81 130 -8 15 -18 27 -23 27 -4
0 -8 6 -8 13 -1 6 -29 53 -63 102 l-62 90 -248 3 c-136 1 -247 0 -247 -2z"/>
<path d="M7550 4365 c0 -8 -4 -15 -10 -15 -7 0 -10 -370 -10 -1089 l0 -1089
23 -6 c29 -8 1661 -8 1681 0 14 5 16 31 16 181 0 138 -3 177 -14 189 -12 12
-111 14 -640 14 l-626 0 0 265 c0 251 1 265 19 275 13 6 213 10 580 10 l561 0
0 195 0 195 -577 2 -578 3 0 240 0 240 605 6 c333 3 620 7 638 8 l32 1 0 189
c0 163 -2 190 -16 195 -9 3 -391 6 -850 6 -735 0 -834 -2 -834 -15z"/>
<path d="M12037 4373 c-4 -3 -7 -500 -7 -1104 l0 -1099 23 -5 c12 -3 110 -4
217 -3 l195 3 3 1108 2 1107 -213 0 c-118 0 -217 -3 -220 -7z"/>
<path d="M15470 3276 c0 -997 2 -1104 16 -1110 20 -8 372 -8 402 0 l22 6 0
786 0 786 30 -29 c17 -16 30 -32 30 -37 0 -4 35 -62 78 -127 42 -66 109 -169
147 -230 39 -61 102 -160 140 -220 39 -61 106 -167 150 -236 44 -69 116 -181
160 -250 157 -242 200 -311 233 -365 57 -95 41 -90 317 -90 213 0 244 2 256
17 12 13 14 196 17 1083 1 692 -1 1077 -8 1094 l-10 26 -209 0 c-181 0 -210
-2 -215 -16 -3 -9 -6 -366 -6 -795 0 -840 1 -819 -50 -726 -13 23 -30 48 -37
55 -7 7 -13 17 -13 22 0 5 -6 15 -13 22 -7 7 -26 34 -42 60 -95 150 -222 346
-302 468 -51 77 -93 143 -93 146 0 2 -36 58 -80 124 -44 66 -80 122 -80 125 0
3 -36 59 -80 125 -44 66 -80 122 -80 125 0 3 -31 53 -70 110 -38 57 -70 109
-70 114 0 5 -10 17 -22 25 -19 14 -62 16 -270 16 l-248 0 0 -1104z"/>
</g>
</svg>
